<?xml version="1.0" encoding="utf-8"?>
<!-- Generator: Adobe Illustrator 18.1.1, SVG Export Plug-In . SVG Version: 6.00 Build 0)  -->
<svg version="1.1" id="Слой_1" xmlns="http://www.w3.org/2000/svg" xmlns:xlink="http://www.w3.org/1999/xlink" x="0px" y="0px"
	 viewBox="0 0 50 48" enable-background="new 0 0 50 48" xml:space="preserve">
<path fill="#010202" d="M25,18.3c-1.8,0-3.2-1.4-3.2-3.2V3.2C21.8,1.4,23.2,0,25,0c1.8,0,3.2,1.4,3.2,3.2v11.9
	C28.2,16.8,26.8,18.3,25,18.3"/>
<path fill="#010202" d="M17.5,23.7c-0.5,1.6-2.3,2.7-4.1,2L2.2,22.1c-1.6-0.5-2.5-2.4-2-4.1c0.5-1.6,2.3-2.7,4.1-2l11.2,3.7
	C17.1,20.2,18,22,17.5,23.7"/>
<path fill="#010202" d="M32.5,23.7c0.5,1.6,2.3,2.7,4.1,2l11.2-3.7c1.6-0.5,2.5-2.4,2-4.1c-0.5-1.6-2.3-2.7-4.1-2l-11.3,3.7
	C32.8,20.2,31.9,22,32.5,23.7"/>
<path fill="#010202" d="M9.7,47.4c-1.4-1-1.8-3-0.7-4.4l6.9-9.6c1-1.4,3-1.8,4.4-0.7c1.4,1,1.8,3,0.7,4.4l-6.8,9.6
	C13.1,48,11.1,48.4,9.7,47.4"/>
<path fill="#010202" d="M40.4,47.4c1.4-1,1.8-3,0.7-4.4l-6.9-9.6c-1-1.4-3-1.8-4.4-0.7c-1.4,1-1.8,3-0.7,4.4l6.9,9.6
	C36.9,48,38.8,48.4,40.4,47.4"/>
</svg>
