<?xml version="1.0" encoding="utf-8"?>
<!-- Generator: Adobe Illustrator 18.1.1, SVG Export Plug-In . SVG Version: 6.00 Build 0)  -->
<svg version="1.1" id="Слой_1" xmlns="http://www.w3.org/2000/svg" xmlns:xlink="http://www.w3.org/1999/xlink" x="0px" y="0px"
	 viewBox="0 0 50 62.4" enable-background="new 0 0 50 62.4" xml:space="preserve">
<path fill="#010202" d="M4.5,62.4L4.5,62.4H4c-1.4,0-2.4-0.5-3.1-1.6C0.1,59.5,0,57.9,0,56.4c0-16.8,0-34,0-50.5c0-1,0-2.4,0.5-3.5
	C1.1,0.9,2.2,0.1,3.9,0H4h0.1c9.3,0,18.7,0,28,0c4.6,0,9.2,0,13.8,0c0.1,0,0.2,0,0.3,0c0.9,0,3,0.4,3.7,4.3l0,0.2v37.4
	c0,0.3-0.1,0.6-0.1,0.9c-0.2,2-0.5,4-1.3,5.7c-0.7,1.7-1.5,3.3-2.2,5s-1.5,3.4-2.3,5c-1.4,3.1-3.7,3.8-5.4,3.8c-3.8,0-7.6,0-11.4,0
	C19.7,62.3,12.1,62.3,4.5,62.4L4.5,62.4z M16,57.8c3.8,0,7.6,0,11.4,0s7.6,0,11.4,0c0.3,0,0.7,0,1.2-1.1c0.7-1.7,1.5-3.4,2.2-5
	c0.7-1.7,1.5-3.4,2.3-5l0-0.1c0.5-1,0.7-2.6,0.9-4.3c0-0.3,0-0.5,0.1-0.8V5c0-0.1,0-0.3-0.1-0.4c-4.4,0-8.8,0-13.2,0
	c-9.2,0-18.4,0-27.5,0c0,0.4,0,1,0,1.3c0,16.6,0,33.7,0,50.5c0,0.7,0,1.1,0,1.4h0C8.4,57.8,12.2,57.8,16,57.8z"/>
<path fill="#010202" d="M24,14c1.3,0,2.5,0,3.9,0c3.5,5.1,4.6,11.4,5,17.4c0.3,4.4-0.7,8.7-2.1,12.8c-1.1,2.9-2.5,5.7-4.3,8.2
	c-1.4,0-2.9,0-4.3,0c2.6-5.4,4.9-11.1,5.4-17.1C28.3,28,27.4,20.5,24,14z"/>
<path fill="#010202" d="M15.3,22.6c2.3,0,4.5,0,6.8,0c0,2,0,3.9,0,5.9c-2.2,0-4.5,0-6.8,0C15.3,26.5,15.3,24.5,15.3,22.6z"/>
<path fill="#010202" d="M15.3,38.2c2.3,0,4.5,0,6.8,0c0,2,0,3.9,0,5.8c-2.2,0-4.5,0-6.8,0C15.3,42.1,15.3,40.1,15.3,38.2z"/>
</svg>
