<?xml version="1.0" encoding="utf-8"?>
<!-- Generator: Adobe Illustrator 18.1.1, SVG Export Plug-In . SVG Version: 6.00 Build 0)  -->
<svg version="1.1" id="Слой_1" xmlns="http://www.w3.org/2000/svg" xmlns:xlink="http://www.w3.org/1999/xlink" x="0px" y="0px"
	 viewBox="0 0 149.9 104.4" enable-background="new 0 0 149.9 104.4" xml:space="preserve">
<path fill="#010202" d="M149.5,47.7c-2-7-5.4-13.6-10.2-19.6c-4.6-5.7-10.3-10.8-17.1-15c-6.6-4.2-14-7.4-21.9-9.6
	C92.2,1.2,83.7,0,75,0c-9,0-17.9,1.2-26.3,3.8c-8,2.3-15.5,5.7-22.1,10C13.3,22.5,4,34.5,0.4,47.7c-0.9,3-0.3,6.3,1.7,8.9
	c1.9,2.5,4.9,4,8.1,4h21.9L19.5,80.1c-0.9,1.3-1.3,3-1.3,4.5V96c0,4.6,3.8,8.4,8.4,8.4h97c4.6,0,8.4-3.8,8.4-8.4V84.6
	c0-1.7-0.4-3.2-1.3-4.5L118,60.6h21.9c3.1,0,6.1-1.5,8.1-4C149.8,54,150.4,50.7,149.5,47.7z M75,28.9c-33.5,0-40.3,9.9-40.3,9.9
	v11.5H10C16,29.1,41.5,10,75,10c32,0,58.3,17,65,40.3h-24.3V38.8C115.6,38.8,108.4,28.9,75,28.9z M121.8,94.2H92.1
	c5-4.6,8.1-11.3,8.1-18.4c0-13.9-11.3-25.2-25.2-25.2S49.8,61.8,49.8,75.8c0,7.4,3.1,13.9,8.1,18.4H28.2v-9.1L57,40.3
	c4.6-0.8,10.5-1.3,18-1.3s13.3,0.6,18,1.3L121.8,85V94.2L121.8,94.2z M59.8,75.8c0-8.4,6.7-15.1,15.1-15.1s15.1,6.8,15.1,15.1
	S83.4,90.9,75,90.9S59.8,84,59.8,75.8z"/>
</svg>
