<?xml version="1.0" encoding="utf-8"?>
<!-- Generator: Adobe Illustrator 18.1.1, SVG Export Plug-In . SVG Version: 6.00 Build 0)  -->
<svg version="1.1" id="Слой_1" xmlns="http://www.w3.org/2000/svg" xmlns:xlink="http://www.w3.org/1999/xlink" x="0px" y="0px"
	 viewBox="0 0 50 50.1" enable-background="new 0 0 50 50.1" xml:space="preserve">
<path fill="#010202" d="M39.5,31c-1-1-2.2-1.6-3.5-1.6s-2.5,0.5-3.6,1.6L29,34.3c-0.2-0.1-0.5-0.3-0.8-0.4c-0.4-0.2-0.7-0.3-1-0.5
	c-3.1-2-5.9-4.6-8.7-7.9c-1.3-1.6-2.2-3.1-2.8-4.5c0.8-0.8,1.6-1.6,2.4-2.4c0.3-0.3,0.6-0.6,0.9-0.9c2.2-2.2,2.2-5.1,0-7.3l-2.9-2.9
	c-0.3-0.3-0.6-0.6-1-1c-0.6-0.6-1.3-1.3-2-1.9c-1-1-2.2-1.5-3.5-1.5S7,3.5,5.9,4.5l0,0L2.3,8.2C1,9.5,0.2,11.2,0,13.1
	c-0.2,3.1,0.6,5.9,1.3,7.8c1.7,4.6,4.2,8.9,8.1,13.5c4.6,5.5,10.2,9.9,16.5,12.9c2.4,1.1,5.6,2.5,9.3,2.7c0.2,0,0.4,0,0.6,0
	c2.4,0,4.5-0.9,6.1-2.6l0,0c0.5-0.6,1.2-1.2,1.8-1.9c0.4-0.4,0.9-0.9,1.3-1.3c1-1.1,1.6-2.3,1.6-3.6c0-1.3-0.5-2.5-1.6-3.6L39.5,31z
	 M43.3,42.1L43.3,42.1c-0.4,0.4-0.8,0.8-1.3,1.3c-0.7,0.6-1.4,1.3-2,2.1c-1,1.1-2.3,1.7-3.9,1.7c-0.1,0-0.3,0-0.5,0
	c-3.1-0.2-6-1.4-8.2-2.5c-6-2.9-11.2-7-15.6-12.2c-3.6-4.3-6-8.3-7.6-12.6c-1-2.6-1.3-4.7-1.2-6.6C3,12,3.5,11,4.4,10.1L8,6.5
	C8.5,6,9,5.8,9.6,5.8c0.6,0,1.2,0.4,1.5,0.7c0,0,0,0,0,0c0.6,0.6,1.2,1.2,1.9,1.9c0.3,0.3,0.6,0.7,1,1l2.9,2.9
	c1.1,1.1,1.1,2.1,0,3.3c-0.3,0.3-0.6,0.6-0.9,0.9c-0.9,0.9-1.7,1.7-2.6,2.6l0,0c-0.9,0.9-0.7,1.8-0.5,2.4c0,0,0,0,0,0.1
	c0.7,1.8,1.8,3.5,3.4,5.5l0,0c2.9,3.6,6,6.4,9.4,8.5c0.4,0.2,0.9,0.5,1.3,0.7s0.7,0.3,1,0.5c0,0,0.1,0,0.1,0c0.3,0.2,0.7,0.2,1,0.2
	c0.9,0,1.4-0.5,1.6-0.7l3.6-3.6c0.3-0.3,0.9-0.8,1.6-0.8c0.6,0,1.2,0.4,1.5,0.7l0,0l5.8,5.8C44.4,39.9,44.4,41,43.3,42.1z"/>
<path fill="#010202" d="M27,11.9c2.7,0.4,5.3,1.8,7.3,3.8s3.3,4.5,3.8,7.3c0.1,0.7,0.7,1.2,1.4,1.2c0.1,0,0.1,0,0.2,0
	c0.8-0.1,1.3-0.8,1.1-1.6c-0.5-3.3-2.1-6.4-4.6-8.8c-2.4-2.4-5.5-4-8.8-4.6C26.7,9,26,9.6,25.8,10.3C25.8,11.1,26.3,11.8,27,11.9z"
	/>
<path fill="#010202" d="M50,22.1c-0.9-5.5-3.5-10.5-7.5-14.5S33.5,1,27.9,0c-0.7-0.1-1.5,0.4-1.6,1.1c-0.1,0.8,0.4,1.5,1.1,1.6
	c4.9,0.8,9.4,3.1,13,6.7c3.5,3.5,5.9,8,6.7,13c0.1,0.7,0.7,1.2,1.4,1.2c0.1,0,0.1,0,0.2,0C49.6,23.6,50.1,22.8,50,22.1z"/>
</svg>
